<svg xmlns="http://www.w3.org/2000/svg" viewBox="0 0 132 80"><path d="M64.24,3.46H0v16.8H22.36V78.41H41.88V20.26H64.24Zm30.22,41c1.66-.11,3.31-.22,5-.22,7.5,0,13.67,2,13.67,10.47,0,6.73-6.06,9.48-12.46,9.48-9.47,0-14-4.52-13.77-13.67H69.33C68.23,70.25,82.78,79.4,100.74,79.4c15.21,0,31.09-7.27,31.09-24.69,0-9-4.3-15.32-13.12-17.63,7.05-1.43,10.69-8.49,10.69-15.21C129.4,6.22,114.08.6,100.74.6,84.32.6,71.87,9.52,71.43,26.72H89c-.11-6.95,4.3-10.91,11.9-10.91,6.07,0,11,2.75,11,7.71,0,6.61-6.94,8.05-12.45,8.05-1.65.11-3.3-.22-5-.11Z" fill="#c2072d" fill-rule="evenodd"/></svg>